<svg xmlns="http://www.w3.org/2000/svg" width="149" height="149" viewBox="0 0 149 149">
  <g id="Grupo_909403" data-name="Grupo 909403" transform="translate(-1070 -1757)">
    <path id="Trazado_675688" data-name="Trazado 675688" d="M74.5,0A74.5,74.5,0,1,1,0,74.5,74.5,74.5,0,0,1,74.5,0Z" transform="translate(1070 1757)" fill="#0b5999"/>
    <g id="noun-router-1292990" transform="translate(1033.8 1768.3)">
      <path id="Trazado_675473" data-name="Trazado 675473" d="M81.576,169.4v.088a1.714,1.714,0,0,0,1.711,1.711h4.505a1.714,1.714,0,0,0,1.711-1.711v-.059H136.2v.059a1.714,1.714,0,0,0,1.711,1.711h4.505a1.714,1.714,0,0,0,1.711-1.711V169.4a9.644,9.644,0,0,0,9.362-9.61V148.875a9.658,9.658,0,0,0-9.64-9.64h-1.975V110.711a1.711,1.711,0,1,0-3.423,0v28.524H87.237V110.711a1.711,1.711,0,0,0-3.423,0v28.524H81.84a9.658,9.658,0,0,0-9.64,9.64v10.912a9.657,9.657,0,0,0,9.376,9.61Zm-5.939-20.508a6.243,6.243,0,0,1,6.217-6.231h61.962a6.233,6.233,0,0,1,6.217,6.231V159.8a6.243,6.243,0,0,1-6.217,6.231H81.854a6.233,6.233,0,0,1-6.217-6.231Z" transform="translate(0 -71.115)" fill="#fff"/>
      <path id="Trazado_675474" data-name="Trazado 675474" d="M151.386,404.742a2.443,2.443,0,1,1-2.443-2.443,2.447,2.447,0,0,1,2.443,2.443" transform="translate(-63.432 -321.512)" fill="#fff"/>
      <path id="Trazado_675475" data-name="Trazado 675475" d="M216.786,404.742a2.443,2.443,0,1,1-2.443-2.443,2.447,2.447,0,0,1,2.443,2.443" transform="translate(-119.265 -321.512)" fill="#fff"/>
      <path id="Trazado_675476" data-name="Trazado 675476" d="M282.186,404.742a2.443,2.443,0,1,1-2.443-2.443,2.447,2.447,0,0,1,2.443,2.443" transform="translate(-175.099 -321.512)" fill="#fff"/>
      <path id="Trazado_675477" data-name="Trazado 675477" d="M524.886,404.742a2.443,2.443,0,1,1-2.443-2.443,2.447,2.447,0,0,1,2.443,2.443" transform="translate(-382.298 -321.512)" fill="#fff"/>
      <path id="Trazado_675478" data-name="Trazado 675478" d="M75.7,39.859a1.714,1.714,0,0,0,1.711-1.711,9.039,9.039,0,0,1,9.025-9.025,1.711,1.711,0,1,0,0-3.423A12.442,12.442,0,0,0,74,38.133,1.7,1.7,0,0,0,75.7,39.859Z" transform="translate(-1.536)" fill="#fff"/>
      <path id="Trazado_675479" data-name="Trazado 675479" d="M108.8,73.02a1.711,1.711,0,1,0,3.423,0,6.006,6.006,0,0,1,6-6,1.711,1.711,0,1,0,0-3.423A9.433,9.433,0,0,0,108.8,73.02Z" transform="translate(-31.246 -32.356)" fill="#fff"/>
      <path id="Trazado_675480" data-name="Trazado 675480" d="M449,39.859a1.714,1.714,0,0,0,1.711-1.711,9.039,9.039,0,0,1,9.025-9.025,1.711,1.711,0,1,0,0-3.423A12.442,12.442,0,0,0,447.3,38.133,1.7,1.7,0,0,0,449,39.859Z" transform="translate(-320.232)" fill="#fff"/>
      <path id="Trazado_675481" data-name="Trazado 675481" d="M482.1,73.02a1.711,1.711,0,0,0,3.423,0,6.005,6.005,0,0,1,6-6,1.711,1.711,0,1,0,0-3.423A9.442,9.442,0,0,0,482.1,73.02Z" transform="translate(-349.942 -32.356)" fill="#fff"/>
    </g>
  </g>
</svg>
