<svg xmlns="http://www.w3.org/2000/svg" width="149" height="149" viewBox="0 0 149 149">
  <g id="Grupo_909402" data-name="Grupo 909402" transform="translate(-723 -1757)">
    <circle id="Elipse_7042" data-name="Elipse 7042" cx="74.5" cy="74.5" r="74.5" transform="translate(723 1757)" fill="#0b5999"/>
    <g id="noun-connection-1496007" transform="translate(712.4 1763.792)">
      <path id="Trazado_675472" data-name="Trazado 675472" d="M116.312,49.549V39.3a2,2,0,0,0-1.99-1.99H104.07a1.987,1.987,0,0,0-1.99,1.99V49.549a2,2,0,0,0,1.99,1.99h2.9v.995A7.888,7.888,0,0,1,101.885,60L91.438,64.082V24.871l6.68,5.97h0a2.013,2.013,0,0,0,2.7-2.985L90.87,18.795h0a1.991,1.991,0,0,0-2.683,0l-10.056,9.15a2.013,2.013,0,1,0,2.7,2.985l6.627-5.952V72.539l-10.251-3.98A8,8,0,0,1,72.126,61.1V59.711a7.061,7.061,0,1,0-4,.107v1.3A11.827,11.827,0,0,0,75.7,72.255l11.744,4.584V83.5a13.84,13.84,0,1,0,4.015,0V68.381L103.289,63.8a11.827,11.827,0,0,0,7.569-11.14v-.995h3.376a1.918,1.918,0,0,0,1.51-.586,2.031,2.031,0,0,0,.569-1.528ZM69.958,56.122a3.094,3.094,0,1,1,2.185-.906,3.155,3.155,0,0,1-2.185.906Zm29.35,41.094a9.827,9.827,0,1,1-2.878-6.965A9.842,9.842,0,0,1,99.309,97.217Zm12.934-49.658h-6.165V41.287h6.272Z" transform="translate(-3 4)" fill="#fff"/>
    </g>
  </g>
</svg>
