<svg xmlns="http://www.w3.org/2000/svg" width="42.597" height="50.848" viewBox="0 0 42.597 50.848">
  <g id="Grupo_908312" data-name="Grupo 908312" style="isolation: isolate">
    <g id="Grupo_895671" data-name="Grupo 895671" transform="translate(6.278 35.364)">
      <path id="Trazado_622995" data-name="Trazado 622995" d="M194.077,407.165l.9-.66a40.73,40.73,0,0,0,2.726,3.828l-.68.956A43.918,43.918,0,0,1,194.077,407.165Z" transform="translate(-194.077 -406.505)" fill="#fecb2f"/>
    </g>
    <g id="Grupo_895672" data-name="Grupo 895672" transform="translate(7.177 32.117)">
      <path id="Trazado_622996" data-name="Trazado 622996" d="M201.032,401.568a40.775,40.775,0,0,0,2.726,3.827l-5.588,3.248a40.714,40.714,0,0,1-2.725-3.828Z" transform="translate(-195.444 -401.568)" fill="#3a4d57"/>
    </g>
    <g id="Grupo_895673" data-name="Grupo 895673" transform="translate(9.223 35.944)">
      <path id="Trazado_622997" data-name="Trazado 622997" d="M199.234,410.635l5.588-3.248-.68.956-5.589,3.248Z" transform="translate(-198.554 -407.387)" fill="#3a4d57"/>
    </g>
    <g id="Grupo_895674" data-name="Grupo 895674" transform="translate(0.968 20.557)">
      <path id="Trazado_622998" data-name="Trazado 622998" d="M186,387.238l5.589-3.248,1.285.24-5.589,3.248Z" transform="translate(-186.003 -383.99)" fill="#3a4d57"/>
    </g>
    <g id="Grupo_895675" data-name="Grupo 895675" transform="translate(2.253 20.797)">
      <path id="Trazado_622999" data-name="Trazado 622999" d="M193.545,384.356a36.419,36.419,0,0,0,1.387,4.319l-5.589,3.248a36.537,36.537,0,0,1-1.386-4.319Z" transform="translate(-187.957 -384.356)" fill="#3a4d57"/>
    </g>
    <g id="Grupo_895676" data-name="Grupo 895676" transform="translate(0.968 23.804)">
      <path id="Trazado_623000" data-name="Trazado 623000" d="M186,388.928l1.285.241a36.519,36.519,0,0,0,1.386,4.319l-1.174.1A39.99,39.99,0,0,1,186,388.928Z" transform="translate(-186.003 -388.928)" fill="#fecb2f"/>
    </g>
    <g id="Grupo_895677" data-name="Grupo 895677" transform="translate(15.124 41.222)">
      <path id="Trazado_623001" data-name="Trazado 623001" d="M213.115,415.412a26.39,26.39,0,0,0,3.314,2.286l-5.589,3.248a26.419,26.419,0,0,1-3.313-2.286Z" transform="translate(-207.527 -415.412)" fill="#3a4d57"/>
    </g>
    <g id="Grupo_895678" data-name="Grupo 895678" transform="translate(18.448 43.514)">
      <path id="Trazado_623002" data-name="Trazado 623002" d="M212.581,422.144l5.588-3.248.016,1.559L212.6,423.7Z" transform="translate(-212.581 -418.897)" fill="#3a4d57"/>
    </g>
    <g id="Grupo_895679" data-name="Grupo 895679" transform="translate(14.861 44.47)">
      <path id="Trazado_623003" data-name="Trazado 623003" d="M210.714,422.642l.016,1.559-.02-.012a28.235,28.235,0,0,1-3.583-2.47l.264-1.369A26.4,26.4,0,0,0,210.714,422.642Z" transform="translate(-207.126 -420.35)" fill="#fecb2f"/>
    </g>
    <g id="Grupo_895680" data-name="Grupo 895680" transform="translate(18.438 43.509)">
      <path id="Trazado_623004" data-name="Trazado 623004" d="M218.154,418.888l.01.006-5.588,3.248-.011-.006Z" transform="translate(-212.565 -418.888)" fill="#3a4d57"/>
    </g>
    <g id="Grupo_895681" data-name="Grupo 895681" transform="translate(1.352 13.897)">
      <path id="Trazado_623005" data-name="Trazado 623005" d="M192.175,373.864v.017l-5.588,3.248v-.017Z" transform="translate(-186.587 -373.864)" fill="#3a4d57"/>
    </g>
    <g id="Grupo_895682" data-name="Grupo 895682" transform="translate(1.352 13.878)">
      <path id="Trazado_623006" data-name="Trazado 623006" d="M192.175,373.835v.019l-5.588,3.248v-.019l.994-.578Z" transform="translate(-186.587 -373.835)" fill="#3a4d57"/>
    </g>
    <g id="Grupo_895683" data-name="Grupo 895683" transform="translate(0.356 9.214)">
      <path id="Trazado_623007" data-name="Trazado 623007" d="M185.073,369.992l5.589-3.248,1.327,1.065-5.589,3.248Z" transform="translate(-185.073 -366.744)" fill="#3a4d57"/>
    </g>
    <g id="Grupo_895684" data-name="Grupo 895684" transform="translate(1.352 10.279)">
      <path id="Trazado_623008" data-name="Trazado 623008" d="M192.506,368.364a19.427,19.427,0,0,0-.331,3.6l-5.588,3.248a19.423,19.423,0,0,1,.331-3.6l5.588-3.247Z" transform="translate(-186.587 -368.364)" fill="#3a4d57"/>
    </g>
    <g id="Grupo_895685" data-name="Grupo 895685" transform="translate(3.599 5.643)">
      <path id="Trazado_623009" data-name="Trazado 623009" d="M194.356,364.563l5.588-3.248c-2.676,1.556-4.338,4.859-4.351,9.552-.027,9.441,6.639,20.987,14.855,25.73l-5.588,3.248c-8.217-4.743-14.882-16.289-14.856-25.73C190.018,369.422,191.68,366.118,194.356,364.563Z" transform="translate(-190.004 -361.315)" fill="#3a4d57"/>
    </g>
    <g id="Grupo_895686" data-name="Grupo 895686" transform="translate(7.996 23.775)">
      <path id="Trazado_623010" data-name="Trazado 623010" d="M197.314,392.131l5.588-3.248-.625.443-5.589,3.248Z" transform="translate(-196.689 -388.883)" fill="#edb05f"/>
    </g>
    <g id="Grupo_895687" data-name="Grupo 895687" transform="translate(6.423 20.993)">
      <path id="Trazado_623011" data-name="Trazado 623011" d="M194.3,387.952l5.589-3.248.822-.05-5.589,3.248Z" transform="translate(-194.297 -384.654)" fill="#edb05f"/>
    </g>
    <g id="Grupo_895688" data-name="Grupo 895688" transform="translate(0 12.462)">
      <path id="Trazado_623012" data-name="Trazado 623012" d="M185.883,376.365v.017l-1.352-.756v-.041a21.047,21.047,0,0,1,.356-3.9l1.327,1.065A19.4,19.4,0,0,0,185.883,376.365Z" transform="translate(-184.531 -371.682)" fill="#fecb2f"/>
    </g>
    <g id="Grupo_895689" data-name="Grupo 895689" transform="translate(13.415 28.459)">
      <path id="Trazado_623013" data-name="Trazado 623013" d="M204.928,399.254l5.589-3.248.053,1.1-5.589,3.248Z" transform="translate(-204.928 -396.006)" fill="#edb05f"/>
    </g>
    <g id="Grupo_895690" data-name="Grupo 895690" transform="translate(5.778 14.087)">
      <path id="Trazado_623014" data-name="Trazado 623014" d="M193.317,377.4l5.589-3.248.9.794-5.589,3.248Z" transform="translate(-193.317 -374.153)" fill="#edb05f"/>
    </g>
    <g id="Grupo_895691" data-name="Grupo 895691" transform="translate(23.98 45.656)">
      <path id="Trazado_623015" data-name="Trazado 623015" d="M226.579,422.153a11.316,11.316,0,0,0,3.062.164l-5.588,3.248a11.316,11.316,0,0,1-3.062-.164C222.667,424.426,224.669,422.485,226.579,422.153Z" transform="translate(-220.991 -422.153)" fill="#3a4d57"/>
    </g>
    <g id="Grupo_895692" data-name="Grupo 895692" transform="translate(23.98 48.904)">
      <path id="Trazado_623016" data-name="Trazado 623016" d="M220.991,427.091a11.321,11.321,0,0,0,3.062.164l.675,1.74a12.376,12.376,0,0,1-3.306-.183Z" transform="translate(-220.991 -427.091)" fill="#fecb2f"/>
    </g>
    <g id="Grupo_895693" data-name="Grupo 895693" transform="translate(27.042 45.82)">
      <path id="Trazado_623017" data-name="Trazado 623017" d="M225.647,425.65l5.589-3.248.675,1.74-5.588,3.248Z" transform="translate(-225.647 -422.402)" fill="#3a4d57"/>
    </g>
    <g id="Grupo_895694" data-name="Grupo 895694" transform="translate(9.032 15.77)">
      <path id="Trazado_623018" data-name="Trazado 623018" d="M199.429,379.96l5.588-3.248a2.289,2.289,0,0,0-1.01,1.4,4.292,4.292,0,0,0-.155,1.163,8.889,8.889,0,0,0,2.9,6.1,6.33,6.33,0,0,0,1.093.806,2.84,2.84,0,0,0,2.847.275L205.1,389.7a2.84,2.84,0,0,1-2.847-.275,6.324,6.324,0,0,1-1.093-.806,8.885,8.885,0,0,1-2.9-6.1,4.288,4.288,0,0,1,.155-1.163A2.29,2.29,0,0,1,199.429,379.96Z" transform="translate(-198.264 -376.712)" fill="#edb05f"/>
    </g>
    <g id="Grupo_895695" data-name="Grupo 895695" transform="translate(18.393 29.658)">
      <path id="Trazado_623019" data-name="Trazado 623019" d="M218.085,398.007l-5.588,3.248q.142-.083.277-.178l5.588-3.248C218.273,397.893,218.18,397.952,218.085,398.007Z" transform="translate(-212.497 -397.829)" fill="#edb05f"/>
    </g>
    <g id="Grupo_895696" data-name="Grupo 895696" transform="translate(17.968 28.536)">
      <path id="Trazado_623020" data-name="Trazado 623020" d="M211.851,399.371l5.589-3.248.7,1.122-5.588,3.248Z" transform="translate(-211.851 -396.123)" fill="#edb05f"/>
    </g>
    <g id="Grupo_895697" data-name="Grupo 895697" transform="translate(9.388 10.944)">
      <path id="Trazado_623021" data-name="Trazado 623021" d="M198.8,372.622l5.589-3.248.453,1.205-5.589,3.248Z" transform="translate(-198.804 -369.374)" fill="#edb05f"/>
    </g>
    <g id="Grupo_895698" data-name="Grupo 895698" transform="translate(7.684 10.944)">
      <path id="Trazado_623022" data-name="Trazado 623022" d="M196.214,373.119l5.588-3.248a3.813,3.813,0,0,1,1.7-.5l-5.589,3.248A3.809,3.809,0,0,0,196.214,373.119Z" transform="translate(-196.214 -369.374)" fill="#edb05f"/>
    </g>
    <g id="Grupo_895699" data-name="Grupo 895699" transform="translate(4.601 1.771)">
      <path id="Trazado_623023" data-name="Trazado 623023" d="M191.527,358.675l5.589-3.248,1.02,1.616-5.589,3.248Z" transform="translate(-191.527 -355.428)" fill="#3a4d57"/>
    </g>
    <g id="Grupo_895700" data-name="Grupo 895700" transform="translate(2.485 5.018)">
      <path id="Trazado_623024" data-name="Trazado 623024" d="M188.31,362.541a9.54,9.54,0,0,1,2.116-2.176l1.02,1.616a8.8,8.8,0,0,0-1.962,2.013Z" transform="translate(-188.31 -360.365)" fill="#fecb2f"/>
    </g>
    <g id="Grupo_895701" data-name="Grupo 895701" transform="translate(3.659 3.387)">
      <path id="Trazado_623025" data-name="Trazado 623025" d="M197.645,357.884a8.8,8.8,0,0,0-1.962,2.013l-5.588,3.248a8.805,8.805,0,0,1,1.962-2.013Z" transform="translate(-190.095 -357.884)" fill="#3a4d57"/>
    </g>
    <g id="Grupo_895702" data-name="Grupo 895702" transform="translate(17.968 26.391)">
      <path id="Trazado_623026" data-name="Trazado 623026" d="M213.272,396.109l5.589-3.248a3.876,3.876,0,0,1-1.421,2.145l-5.588,3.248A3.872,3.872,0,0,0,213.272,396.109Z" transform="translate(-211.851 -392.861)" fill="#edb05f"/>
    </g>
    <g id="Grupo_895703" data-name="Grupo 895703" transform="translate(18.456 40.925)">
      <path id="Trazado_623027" data-name="Trazado 623027" d="M228.786,415.991l-5.588,3.248c-2.713,1.577-6.468,1.358-10.605-1.031l5.588-3.248C222.318,417.349,226.073,417.568,228.786,415.991Z" transform="translate(-212.592 -414.96)" fill="#3a4d57"/>
    </g>
    <g id="Grupo_895704" data-name="Grupo 895704" transform="translate(9.84 12.142)">
      <path id="Trazado_623028" data-name="Trazado 623028" d="M199.493,374.451l5.588-3.248a5.559,5.559,0,0,1,2.823.68l-5.588,3.248A5.559,5.559,0,0,0,199.493,374.451Z" transform="translate(-199.493 -371.196)" fill="#edb05f"/>
    </g>
    <g id="Grupo_895705" data-name="Grupo 895705" transform="translate(19.634 23.998)">
      <path id="Trazado_623029" data-name="Trazado 623029" d="M214.384,392.47l5.589-3.248.937.477-5.589,3.248Z" transform="translate(-214.384 -389.222)" fill="#edb05f"/>
    </g>
    <g id="Grupo_895706" data-name="Grupo 895706" transform="translate(20.289 24.474)">
      <path id="Trazado_623030" data-name="Trazado 623030" d="M215.661,393.195l5.589-3.248c.009.174.014.352.013.521a8.05,8.05,0,0,1-.3,2.2l-5.588,3.248a8.05,8.05,0,0,0,.3-2.2C215.676,393.547,215.671,393.369,215.661,393.195Z" transform="translate(-215.38 -389.947)" fill="#edb05f"/>
    </g>
    <g id="Grupo_895707" data-name="Grupo 895707" transform="translate(22.891 28.426)">
      <path id="Trazado_623031" data-name="Trazado 623031" d="M219.692,399.2l5.589-3.248-.356.389-5.589,3.248Z" transform="translate(-219.336 -395.955)" fill="#00b7b9"/>
    </g>
    <g id="Grupo_895708" data-name="Grupo 895708" transform="translate(21.237 25.714)">
      <path id="Trazado_623032" data-name="Trazado 623032" d="M216.821,395.11l5.588-3.248.553-.031-5.589,3.248Z" transform="translate(-216.821 -391.832)" fill="#00b7b9"/>
    </g>
    <g id="Grupo_895709" data-name="Grupo 895709" transform="translate(18.818 20.275)">
      <path id="Trazado_623033" data-name="Trazado 623033" d="M213.143,386.81l5.589-3.248a12.491,12.491,0,0,1,.815,3.722l-5.588,3.248A12.469,12.469,0,0,0,213.143,386.81Z" transform="translate(-213.143 -383.562)" fill="#edb05f"/>
    </g>
    <g id="Grupo_895710" data-name="Grupo 895710" transform="translate(14.865 14.374)">
      <path id="Trazado_623034" data-name="Trazado 623034" d="M207.132,377.838l5.588-3.248a14.757,14.757,0,0,1,2.572,3.117l-5.589,3.248A14.76,14.76,0,0,0,207.132,377.838Z" transform="translate(-207.132 -374.59)" fill="#edb05f"/>
    </g>
    <g id="Grupo_895711" data-name="Grupo 895711" transform="translate(14.865 13.479)">
      <path id="Trazado_623035" data-name="Trazado 623035" d="M207.378,376.477l5.589-3.248-.246.9-5.589,3.248Z" transform="translate(-207.132 -373.229)" fill="#edb05f"/>
    </g>
    <g id="Grupo_895712" data-name="Grupo 895712" transform="translate(12.611 11.721)">
      <path id="Trazado_623036" data-name="Trazado 623036" d="M203.7,373.8l5.588-3.248c.147.079.3.16.445.245a12.227,12.227,0,0,1,2.055,1.513l-5.588,3.248a12.225,12.225,0,0,0-2.055-1.513C204,373.964,203.852,373.883,203.7,373.8Z" transform="translate(-203.705 -370.556)" fill="#edb05f"/>
    </g>
    <g id="Grupo_895713" data-name="Grupo 895713" transform="translate(5.483 14.191)">
      <path id="Trazado_623037" data-name="Trazado 623037" d="M207.956,387.843c.01.174.014.352.014.521a8.049,8.049,0,0,1-.3,2.2l-.9-.8a3.873,3.873,0,0,1-1.421,2.146l.7,1.122a3.8,3.8,0,0,1-1.98.681l-.453-1.206a5.544,5.544,0,0,1-2.822-.674l.053,1.1q-.228-.115-.456-.246a11.955,11.955,0,0,1-2.055-1.518l.236-.9a14.713,14.713,0,0,1-2.572-3.123l-.625.443a18.126,18.126,0,0,1-1.573-3.175l.821-.05a12.331,12.331,0,0,1-.811-3.72l-.937-.476c-.01-.175-.014-.341-.014-.509a8.025,8.025,0,0,1,.3-2.2l.9.794a3.889,3.889,0,0,1,1.431-2.139l-.7-1.122a3.746,3.746,0,0,1,1.979-.675l.453,1.206a5.561,5.561,0,0,1,2.823.68L200,375.089c.147.079.3.161.445.245a12.218,12.218,0,0,1,2.055,1.513l-.246.9a14.762,14.762,0,0,1,2.572,3.117l.625-.443a18.184,18.184,0,0,1,1.579,3.177l-.822.05a12.467,12.467,0,0,1,.816,3.723Zm-3.69-.359a4.286,4.286,0,0,0,.155-1.169,8.883,8.883,0,0,0-2.9-6.1,6.282,6.282,0,0,0-1.092-.806c-1.742-1.005-3.35-.611-3.857,1.124a4.29,4.29,0,0,0-.155,1.163,8.885,8.885,0,0,0,2.9,6.1,6.327,6.327,0,0,0,1.093.806c1.742,1.005,3.35.611,3.857-1.123" transform="translate(-192.868 -374.312)" fill="#feca7a"/>
    </g>
    <g id="Grupo_895714" data-name="Grupo 895714" transform="translate(18.062 17.048)">
      <path id="Trazado_623038" data-name="Trazado 623038" d="M211.993,381.9l5.588-3.248a18.184,18.184,0,0,1,1.579,3.177l-5.589,3.248A18.179,18.179,0,0,0,211.993,381.9Z" transform="translate(-211.993 -378.655)" fill="#edb05f"/>
    </g>
    <g id="Grupo_895715" data-name="Grupo 895715" transform="translate(26.799 31.31)">
      <path id="Trazado_623039" data-name="Trazado 623039" d="M225.278,403.588l5.589-3.248.124.789-5.588,3.248Z" transform="translate(-225.278 -400.34)" fill="#00b7b9"/>
    </g>
    <g id="Grupo_895716" data-name="Grupo 895716" transform="translate(20.81 20.848)">
      <path id="Trazado_623040" data-name="Trazado 623040" d="M216.171,387.681l5.588-3.248.6.551-5.589,3.248Z" transform="translate(-216.171 -384.433)" fill="#00b7b9"/>
    </g>
    <g id="Grupo_895717" data-name="Grupo 895717" transform="translate(32.386 43.684)">
      <path id="Trazado_623041" data-name="Trazado 623041" d="M235.894,422.4l5.588-3.248a9.778,9.778,0,0,1-2.121,2.167l-5.588,3.248A9.78,9.78,0,0,0,235.894,422.4Z" transform="translate(-233.773 -419.155)" fill="#3a4d57"/>
    </g>
    <g id="Grupo_895718" data-name="Grupo 895718" transform="translate(30.65 33.623)">
      <path id="Trazado_623042" data-name="Trazado 623042" d="M236.721,414.934l-5.588,3.248a8.466,8.466,0,0,0,.716-.468,8.805,8.805,0,0,0,1.968-2.006,12.361,12.361,0,0,0,1.988-4.867,19.594,19.594,0,0,0,.339-3.735l5.588-3.248a19.652,19.652,0,0,1-.338,3.735,12.372,12.372,0,0,1-1.988,4.867,8.81,8.81,0,0,1-1.969,2.006A8.44,8.44,0,0,1,236.721,414.934Z" transform="translate(-231.133 -403.858)" fill="#be9e3d"/>
    </g>
    <g id="Grupo_895719" data-name="Grupo 895719" transform="translate(31.366 45.473)">
      <path id="Trazado_623043" data-name="Trazado 623043" d="M232.222,423.881a8.81,8.81,0,0,0,1.968-2.006l1.173,1.459a9.785,9.785,0,0,1-2.121,2.167Z" transform="translate(-232.222 -421.875)" fill="#fecb2f"/>
    </g>
    <g id="Grupo_895720" data-name="Grupo 895720" transform="translate(33.335 42.226)">
      <path id="Trazado_623044" data-name="Trazado 623044" d="M235.215,420.185l5.589-3.248,1.172,1.459-5.589,3.247Z" transform="translate(-235.215 -416.937)" fill="#3a4d57"/>
    </g>
    <g id="Grupo_895721" data-name="Grupo 895721" transform="translate(22.744 21.651)">
      <path id="Trazado_623045" data-name="Trazado 623045" d="M220.032,388.9l5.589-3.248a1.8,1.8,0,0,0-.8,1.108,3.374,3.374,0,0,0-.124.925,7.049,7.049,0,0,0,2.293,4.826,5.163,5.163,0,0,0,.866.64,2.247,2.247,0,0,0,2.251.216l-5.588,3.248a2.247,2.247,0,0,1-2.251-.216,5.157,5.157,0,0,1-.866-.64,7.049,7.049,0,0,1-2.293-4.826,3.37,3.37,0,0,1,.124-.925A1.792,1.792,0,0,1,220.032,388.9Z" transform="translate(-219.112 -385.655)" fill="#00b7b9"/>
    </g>
    <g id="Grupo_895722" data-name="Grupo 895722" transform="translate(29.686 31.468)">
      <path id="Trazado_623046" data-name="Trazado 623046" d="M235.256,401.1l-5.588,3.248a2.534,2.534,0,0,0,.626-.516l5.589-3.248A2.532,2.532,0,0,1,235.256,401.1Z" transform="translate(-229.668 -400.581)" fill="#00b7b9"/>
    </g>
    <g id="Grupo_895723" data-name="Grupo 895723" transform="translate(29.787 30.757)">
      <path id="Trazado_623047" data-name="Trazado 623047" d="M229.821,402.747l5.589-3.248.525.711-5.589,3.248Z" transform="translate(-229.821 -399.499)" fill="#00b7b9"/>
    </g>
    <g id="Grupo_895724" data-name="Grupo 895724" transform="translate(29.787 29.592)">
      <path id="Trazado_623048" data-name="Trazado 623048" d="M230.448,400.976l5.588-3.248a3.053,3.053,0,0,1-.627,1.165l-5.588,3.248A3.053,3.053,0,0,0,230.448,400.976Z" transform="translate(-229.821 -397.728)" fill="#00b7b9"/>
    </g>
    <g id="Grupo_895725" data-name="Grupo 895725" transform="translate(23.663 19.484)">
      <path id="Trazado_623049" data-name="Trazado 623049" d="M220.51,385.612l5.589-3.248a3.452,3.452,0,0,1,1.378.225l-5.588,3.248A3.457,3.457,0,0,0,220.51,385.612Z" transform="translate(-220.51 -382.36)" fill="#00b7b9"/>
    </g>
    <g id="Grupo_895726" data-name="Grupo 895726" transform="translate(31.022 27.354)">
      <path id="Trazado_623050" data-name="Trazado 623050" d="M231.807,397.574l5.588-3.248a7.92,7.92,0,0,1,.1,1.222,5.608,5.608,0,0,1-.207,1.547l-5.588,3.248a5.606,5.606,0,0,0,.207-1.547A7.93,7.93,0,0,0,231.807,397.574Z" transform="translate(-231.698 -394.326)" fill="#00b7b9"/>
    </g>
    <g id="Grupo_895727" data-name="Grupo 895727" transform="translate(30.508 27.135)">
      <path id="Trazado_623051" data-name="Trazado 623051" d="M230.916,397.24l5.589-3.248.623.22-5.589,3.248Z" transform="translate(-230.916 -393.992)" fill="#00b7b9"/>
    </g>
    <g id="Grupo_895728" data-name="Grupo 895728" transform="translate(30.016 25.266)">
      <path id="Trazado_623052" data-name="Trazado 623052" d="M230.169,394.4l5.588-3.247a9.387,9.387,0,0,1,.491,1.869l-5.588,3.248A9.4,9.4,0,0,0,230.169,394.4Z" transform="translate(-230.169 -391.151)" fill="#00b7b9"/>
    </g>
    <g id="Grupo_895729" data-name="Grupo 895729" transform="translate(27.223 21.078)">
      <path id="Trazado_623053" data-name="Trazado 623053" d="M225.923,388.031l5.588-3.248a10.123,10.123,0,0,1,1.325,1.482l-5.588,3.248A10.155,10.155,0,0,0,225.923,388.031Z" transform="translate(-225.923 -384.783)" fill="#00b7b9"/>
    </g>
    <g id="Grupo_895730" data-name="Grupo 895730" transform="translate(24.922 18.928)">
      <path id="Trazado_623054" data-name="Trazado 623054" d="M222.424,384.762l5.589-3.248a5.866,5.866,0,0,1,1,.468,8.545,8.545,0,0,1,1.448,1.069l-5.589,3.248a8.52,8.52,0,0,0-1.447-1.069A5.873,5.873,0,0,0,222.424,384.762Z" transform="translate(-222.424 -381.514)" fill="#00b7b9"/>
    </g>
    <g id="Grupo_895731" data-name="Grupo 895731" transform="translate(27.223 20.465)">
      <path id="Trazado_623055" data-name="Trazado 623055" d="M226.072,387.1l5.589-3.248-.149.613-5.589,3.248Z" transform="translate(-225.923 -383.851)" fill="#00b7b9"/>
    </g>
    <g id="Grupo_895732" data-name="Grupo 895732" transform="translate(28.904 22.165)">
      <path id="Trazado_623056" data-name="Trazado 623056" d="M228.478,389.684l5.588-3.248a12.736,12.736,0,0,1,1.665,3.07l-5.588,3.248A12.742,12.742,0,0,0,228.478,389.684Z" transform="translate(-228.478 -386.436)" fill="#00b7b9"/>
    </g>
    <g id="Grupo_895733" data-name="Grupo 895733" transform="translate(29.808 14.779)">
      <path id="Trazado_623057" data-name="Trazado 623057" d="M230.75,378.454l5.589-3.248-.9.66-5.589,3.248Z" transform="translate(-229.853 -375.206)" fill="#3a4d57"/>
    </g>
    <g id="Grupo_895734" data-name="Grupo 895734" transform="translate(6.363 1.74)">
      <path id="Trazado_623058" data-name="Trazado 623058" d="M194.206,359.788l5.588-3.248a8.647,8.647,0,0,1,3.576-1.117,11.289,11.289,0,0,1,3.057.155,17.5,17.5,0,0,1,5.543,2.135,26.413,26.413,0,0,1,3.314,2.279,34.547,34.547,0,0,1,5.225,5.266,40.625,40.625,0,0,1,2.729,3.822,41.4,41.4,0,0,1,3.548,7,36.552,36.552,0,0,1,1.393,4.32,28.2,28.2,0,0,1,.912,6.865l-5.588,3.248a28.2,28.2,0,0,0-.912-6.865,36.545,36.545,0,0,0-1.393-4.32,41.4,41.4,0,0,0-3.548-7,40.971,40.971,0,0,0-2.729-3.822,34.553,34.553,0,0,0-5.225-5.266,26.368,26.368,0,0,0-3.315-2.279,17.491,17.491,0,0,0-5.542-2.135,11.29,11.29,0,0,0-3.057-.155A8.645,8.645,0,0,0,194.206,359.788Z" transform="translate(-194.206 -355.38)" fill="#be9e3d"/>
    </g>
    <g id="Grupo_895735" data-name="Grupo 895735" transform="translate(9.261)">
      <path id="Trazado_623059" data-name="Trazado 623059" d="M198.612,356.027l5.589-3.248a12.3,12.3,0,0,1,3.3.169l-5.588,3.248A12.311,12.311,0,0,0,198.612,356.027Z" transform="translate(-198.612 -352.735)" fill="#e4b72c"/>
    </g>
    <g id="Grupo_895736" data-name="Grupo 895736" transform="translate(12.562 0.214)">
      <path id="Trazado_623060" data-name="Trazado 623060" d="M203.631,356.308l5.588-3.248.434,1.724-5.589,3.248Z" transform="translate(-203.631 -353.06)" fill="#3a4d57"/>
    </g>
    <g id="Grupo_895737" data-name="Grupo 895737" transform="translate(9.261 3.248)">
      <path id="Trazado_623061" data-name="Trazado 623061" d="M198.612,357.718a12.31,12.31,0,0,1,3.3.169l.434,1.724a11.292,11.292,0,0,0-3.057-.155Z" transform="translate(-198.612 -357.673)" fill="#fecb2f"/>
    </g>
    <g id="Grupo_895738" data-name="Grupo 895738" transform="translate(23.361 18.674)">
      <path id="Trazado_623062" data-name="Trazado 623062" d="M220.051,384.375l5.589-3.248.3.815-5.589,3.248Z" transform="translate(-220.051 -381.127)" fill="#00b7b9"/>
    </g>
    <g id="Grupo_895739" data-name="Grupo 895739" transform="translate(22.139 18.673)">
      <path id="Trazado_623063" data-name="Trazado 623063" d="M218.192,384.73l5.588-3.248a2.715,2.715,0,0,1,1.223-.355l-5.588,3.248A2.718,2.718,0,0,0,218.192,384.73Z" transform="translate(-218.192 -381.127)" fill="#00b7b9"/>
    </g>
    <g id="Grupo_895740" data-name="Grupo 895740" transform="translate(20.592 21.921)">
      <path id="Trazado_623064" data-name="Trazado 623064" d="M226.379,394.746a7.931,7.931,0,0,1,.1,1.222,5.605,5.605,0,0,1-.207,1.547l-.607-.532a3.052,3.052,0,0,1-.627,1.165l.525.712a2.6,2.6,0,0,1-1.833.87l-.3-.816a3.539,3.539,0,0,1-1.379-.213l.124.789a6.207,6.207,0,0,1-1.028-.477,8.6,8.6,0,0,1-1.452-1.072l-.056-.049.18-.6a10.19,10.19,0,0,1-1.319-1.478l-.357.389a12.7,12.7,0,0,1-1.654-3.071l.552-.03a9.291,9.291,0,0,1-.487-1.866l-.623-.226a7.94,7.94,0,0,1-.088-1.181,5.675,5.675,0,0,1,.207-1.553l.011-.041.6.552a2.968,2.968,0,0,1,.632-1.162l-.52-.708a2.618,2.618,0,0,1,1.838-.856l.3.816a3.456,3.456,0,0,1,1.379.225l-.12-.786a5.864,5.864,0,0,1,1,.468,8.514,8.514,0,0,1,1.447,1.069l-.149.613a10.163,10.163,0,0,1,1.325,1.482l.356-.395a12.735,12.735,0,0,1,1.665,3.07l-.552.03a9.4,9.4,0,0,1,.491,1.869Zm-2.178.9a3.407,3.407,0,0,0,.124-.925,7.051,7.051,0,0,0-2.3-4.829,5.133,5.133,0,0,0-.86-.637c-1.377-.8-2.656-.484-3.05.891a3.374,3.374,0,0,0-.124.925,7.048,7.048,0,0,0,2.293,4.825,5.161,5.161,0,0,0,.866.64c1.376.794,2.651.481,3.05-.891" transform="translate(-215.84 -386.065)" fill="#16d8d8"/>
    </g>
    <g id="Grupo_895741" data-name="Grupo 895741" transform="translate(36.647 34.453)">
      <path id="Trazado_623065" data-name="Trazado 623065" d="M240.612,408.368l5.588-3.248a21.21,21.21,0,0,1-.361,3.969l-5.588,3.248A21.215,21.215,0,0,0,240.612,408.368Z" transform="translate(-240.251 -405.12)" fill="#e4b72c"/>
    </g>
    <g id="Grupo_895742" data-name="Grupo 895742" transform="translate(35.322 36.871)">
      <path id="Trazado_623066" data-name="Trazado 623066" d="M238.576,408.8l1.347.777v.053a21.216,21.216,0,0,1-.361,3.969l-1.325-1.064a19.352,19.352,0,0,0,.339-3.653Z" transform="translate(-238.237 -408.796)" fill="#fecb2f"/>
    </g>
    <g id="Grupo_895743" data-name="Grupo 895743" transform="translate(37.008 34.401)">
      <path id="Trazado_623067" data-name="Trazado 623067" d="M240.8,408.288l5.589-3.248v.052l-5.589,3.248Z" transform="translate(-240.8 -405.041)" fill="#3a4d57"/>
    </g>
    <g id="Grupo_895744" data-name="Grupo 895744" transform="translate(35.661 33.623)">
      <path id="Trazado_623068" data-name="Trazado 623068" d="M238.752,407.106l5.589-3.248,1.347.778-5.589,3.248Z" transform="translate(-238.752 -403.858)" fill="#3a4d57"/>
    </g>
    <g id="Grupo_895745" data-name="Grupo 895745" transform="translate(18.514 2.508)">
      <path id="Trazado_623069" data-name="Trazado 623069" d="M212.68,359.8l5.589-3.248.051.029-5.589,3.248Z" transform="translate(-212.68 -356.548)" fill="#3a4d57"/>
    </g>
    <g id="Grupo_895746" data-name="Grupo 895746" transform="translate(18.564 2.538)">
      <path id="Trazado_623070" data-name="Trazado 623070" d="M212.757,359.841l5.588-3.248a28.328,28.328,0,0,1,3.553,2.441l-5.588,3.248A28.3,28.3,0,0,0,212.757,359.841Z" transform="translate(-212.757 -356.593)" fill="#e4b72c"/>
    </g>
    <g id="Grupo_895747" data-name="Grupo 895747" transform="translate(21.853 4.979)">
      <path id="Trazado_623071" data-name="Trazado 623071" d="M218.022,363.553l5.589-3.248-.264,1.372-5.589,3.248Z" transform="translate(-217.758 -360.305)" fill="#3a4d57"/>
    </g>
    <g id="Grupo_895748" data-name="Grupo 895748" transform="translate(18.513 5.756)">
      <path id="Trazado_623072" data-name="Trazado 623072" d="M212.68,361.486l.051.03a28.307,28.307,0,0,1,3.553,2.441l-.264,1.373a26.3,26.3,0,0,0-3.293-2.266l-.022-.013Z" transform="translate(-212.68 -361.486)" fill="#fecb2f"/>
    </g>
    <g id="Grupo_895749" data-name="Grupo 895749" transform="translate(1.352 4.988)">
      <path id="Trazado_623073" data-name="Trazado 623073" d="M220.9,392.2a19.6,19.6,0,0,1-.339,3.735,12.361,12.361,0,0,1-1.988,4.867,8.8,8.8,0,0,1-1.968,2.006,8.524,8.524,0,0,1-4.324,1.588,11.317,11.317,0,0,1-3.062-.164,17.553,17.553,0,0,1-5.523-2.137,26.381,26.381,0,0,1-3.333-2.3,34.62,34.62,0,0,1-5.221-5.278,40.734,40.734,0,0,1-2.725-3.828,41.434,41.434,0,0,1-3.538-7,36.5,36.5,0,0,1-1.386-4.319,28.116,28.116,0,0,1-.9-6.883,19.454,19.454,0,0,1,.331-3.634,12.43,12.43,0,0,1,1.976-4.879,8.8,8.8,0,0,1,1.962-2.013,8.511,8.511,0,0,1,4.318-1.6,11.285,11.285,0,0,1,3.057.155,17.492,17.492,0,0,1,5.542,2.135,26.379,26.379,0,0,1,3.315,2.279,34.556,34.556,0,0,1,5.225,5.266,40.962,40.962,0,0,1,2.729,3.822,41.4,41.4,0,0,1,3.548,7,36.555,36.555,0,0,1,1.393,4.32A28.2,28.2,0,0,1,220.9,392.2Zm-17.205,7.3c8.221,4.747,14.931.923,14.958-8.518S212.009,370,203.787,365.252s-14.926-.926-14.953,8.521,6.639,20.987,14.856,25.73" transform="translate(-186.587 -360.318)" fill="#d1b768"/>
    </g>
    <g id="Grupo_895750" data-name="Grupo 895750" transform="translate(33.356 25.577)">
      <path id="Trazado_623074" data-name="Trazado 623074" d="M236.418,391.623a39.194,39.194,0,0,1,1.5,4.661l-1.281-.231a36.542,36.542,0,0,0-1.393-4.32Z" transform="translate(-235.247 -391.623)" fill="#fecb2f"/>
    </g>
    <g id="Grupo_895751" data-name="Grupo 895751" transform="translate(34.527 22.329)">
      <path id="Trazado_623075" data-name="Trazado 623075" d="M237.028,389.933l5.588-3.248a39.069,39.069,0,0,1,1.5,4.661l-5.588,3.248A39.188,39.188,0,0,0,237.028,389.933Z" transform="translate(-237.028 -386.685)" fill="#e4b72c"/>
    </g>
    <g id="Grupo_895752" data-name="Grupo 895752" transform="translate(33.356 22.329)">
      <path id="Trazado_623076" data-name="Trazado 623076" d="M235.247,390.042l5.589-3.248,1.171-.109-5.589,3.248Z" transform="translate(-235.247 -386.685)" fill="#3a4d57"/>
    </g>
    <g id="Grupo_895753" data-name="Grupo 895753" transform="translate(27.755 10.658)">
      <path id="Trazado_623077" data-name="Trazado 623077" d="M226.731,372.188l5.589-3.248a44.608,44.608,0,0,1,2.949,4.121l-5.588,3.248A44.491,44.491,0,0,0,226.731,372.188Z" transform="translate(-226.731 -368.94)" fill="#e4b72c"/>
    </g>
    <g id="Grupo_895754" data-name="Grupo 895754" transform="translate(27.079 13.906)">
      <path id="Trazado_623078" data-name="Trazado 623078" d="M225.7,374.838l.676-.96a44.49,44.49,0,0,1,2.95,4.121l-.9.66A40.945,40.945,0,0,0,225.7,374.838Z" transform="translate(-225.703 -373.878)" fill="#fecb2f"/>
    </g>
  </g>
</svg>
