<svg id="Grupo_908311" data-name="Grupo 908311" xmlns="http://www.w3.org/2000/svg" width="52.229" height="52.276" viewBox="0 0 52.229 52.276">
  <g id="Grupo_908308" data-name="Grupo 908308" transform="translate(0 0)">
    <g id="Grupo_908304" data-name="Grupo 908304" transform="translate(13.435 13.09)">
      <path id="Trazado_674983" data-name="Trazado 674983" d="M257.748,378.938H257.7a12.191,12.191,0,0,0-12.583,11.485c-.292,3.334-.368,6.348,5.066,12.808,1.139,1.354,1.459,4.049,1.581,5.635.065.861,4.235,1.454,5.792,1.578h0l.192-31.506Z" transform="translate(-245.01 -378.938)" fill="#ffca00"/>
      <path id="Trazado_674984" data-name="Trazado 674984" d="M264.99,390.576a12.184,12.184,0,0,0-12.444-11.634.173.173,0,0,0-.043,0l-.192,31.506c1.56-.108,5.736-.646,5.816-1.509.131-1.583.486-4.274,1.641-5.611C265.285,396.929,265.244,393.912,264.99,390.576Z" transform="translate(-239.764 -378.938)" fill="#fea311"/>
    </g>
    <path id="Trazado_674985" data-name="Trazado 674985" d="M254.879,404.69a1.047,1.047,0,0,1-.986-.71l-5.109-14.9a1.054,1.054,0,0,1,1-1.387l10.4.064a1.052,1.052,0,0,1,.985,1.4l-5.291,14.834A1.043,1.043,0,0,1,254.879,404.69ZM251.25,389.8l3.655,10.658,3.786-10.612Z" transform="translate(-228.903 -359.558)" fill="#ff4a39"/>
    <g id="Grupo_908305" data-name="Grupo 908305" transform="translate(19.308 40.262)">
      <path id="Trazado_674986" data-name="Trazado 674986" d="M248.482,394.749l-.055,8.543h0c.012.146.2.337.569.545l4.52,2.559a3.26,3.26,0,0,0,1.535.368l.072-11.973Z" transform="translate(-248.427 -394.749)" fill="#00447d"/>
      <path id="Trazado_674987" data-name="Trazado 674987" d="M252.355,394.773l-.072,11.973a3.242,3.242,0,0,0,1.538-.349l4.554-2.5c.37-.21.56-.4.571-.546h0l.057-8.538Z" transform="translate(-245.656 -394.732)" fill="#002c52"/>
    </g>
    <path id="Trazado_674988" data-name="Trazado 674988" d="M255.3,379.568a2.019,2.019,0,0,1-2.028,2.006h0a2.011,2.011,0,0,1-2.006-2.03l.038-6.218a2.013,2.013,0,0,1,2.031-2.005h0a2.019,2.019,0,0,1,2,2.026Z" transform="translate(-227.079 -371.321)" fill="#ffca00"/>
    <g id="Grupo_908306" data-name="Grupo 908306" transform="translate(6.742 6.408)">
      <path id="Trazado_674989" data-name="Trazado 674989" d="M248.939,380.074a2.025,2.025,0,0,1-.015,2.854h0a2.021,2.021,0,0,1-2.856-.019l-4.37-4.425a2.021,2.021,0,0,1,.017-2.856h0a2.021,2.021,0,0,1,2.851.021Z" transform="translate(-241.115 -375.05)" fill="#ffca00"/>
      <path id="Trazado_674990" data-name="Trazado 674990" d="M259.438,380.128a2.015,2.015,0,0,0-.019,2.851h0a2.023,2.023,0,0,0,2.856.021l4.423-4.374a2.015,2.015,0,0,0,.016-2.853h0a2.013,2.013,0,0,0-2.849-.019Z" transform="translate(-228.38 -374.961)" fill="#ffca00"/>
    </g>
    <g id="Grupo_908307" data-name="Grupo 908307" transform="translate(0 20.726)">
      <path id="Trazado_674991" data-name="Trazado 674991" d="M245.445,383.419a2.019,2.019,0,0,1,2,2.031h0a2.018,2.018,0,0,1-2.026,2l-6.223-.04a2.01,2.01,0,0,1-2.006-2.028h0a2.01,2.01,0,0,1,2.03-2.005Z" transform="translate(-237.192 -383.381)" fill="#ffca00"/>
      <path id="Trazado_674992" data-name="Trazado 674992" d="M269.865,383.568a2.02,2.02,0,0,1,2.007,2.03h0a2.014,2.014,0,0,1-2.031,2l-6.221-.034a2.018,2.018,0,0,1-2.006-2.03h0a2.024,2.024,0,0,1,2.03-2.006Z" transform="translate(-219.643 -383.274)" fill="#ffca00"/>
    </g>
  </g>
  <g id="Grupo_908309" data-name="Grupo 908309" transform="translate(18.471 42.864)">
    <path id="Trazado_674993" data-name="Trazado 674993" d="M259.812,397.188a.857.857,0,0,0-.854-.861l-6.639-.043L252.31,398l6.64.038A.856.856,0,0,0,259.812,397.188Z" transform="translate(-244.8 -396.248)" fill="#f0f0f0"/>
    <path id="Trazado_674994" data-name="Trazado 674994" d="M248.812,396.263a.854.854,0,1,0-.01,1.708l6.639.04.009-1.712Z" transform="translate(-247.931 -396.263)" fill="#fff"/>
    <path id="Trazado_674995" data-name="Trazado 674995" d="M248.8,398.332a.856.856,0,1,0-.007,1.712l6.634.04.014-1.712Z" transform="translate(-247.94 -394.776)" fill="#fff"/>
    <path id="Trazado_674996" data-name="Trazado 674996" d="M258.949,398.395l-6.639-.04-.014,1.712,6.641.038a.855.855,0,1,0,.012-1.71Z" transform="translate(-244.81 -394.76)" fill="#f0f0f0"/>
  </g>
</svg>
