<svg xmlns="http://www.w3.org/2000/svg" width="149" height="149" viewBox="0 0 149 149">
  <g id="Grupo_909401" data-name="Grupo 909401" transform="translate(-376 -1757)">
    <path id="Trazado_675687" data-name="Trazado 675687" d="M74.5,0A74.5,74.5,0,1,1,0,74.5,74.5,74.5,0,0,1,74.5,0Z" transform="translate(376 1757)" fill="#0b5999"/>
    <g id="noun-connection-1441972" transform="translate(371.937 1753.297)">
      <path id="Trazado_675471" data-name="Trazado 675471" d="M47.431,34.62A2.082,2.082,0,0,0,45.8,35.655a48.491,48.491,0,0,0-6.5,24.8,48.34,48.34,0,0,0,6.5,24.762,2.045,2.045,0,0,0,1.275,1.035,2.058,2.058,0,0,0,2.273-3.141,44.028,44.028,0,0,1-5.913-22.674,44.416,44.416,0,0,1,5.913-22.711,2.069,2.069,0,0,0,0-2.162,2.093,2.093,0,0,0-1.922-.942Zm57.8,0a2.062,2.062,0,0,0-1.46,3.123,44.178,44.178,0,0,1,5.913,22.711,44.209,44.209,0,0,1-5.913,22.674,2.06,2.06,0,0,0,.647,2.938,2.02,2.02,0,0,0,1.626.2,2.157,2.157,0,0,0,1.275-1.035,48.4,48.4,0,0,0,6.5-24.762,48.492,48.492,0,0,0-6.5-24.8,2.067,2.067,0,0,0-2.088-1.053ZM56.781,39.795h0a2.036,2.036,0,0,0-1.515.832,32.921,32.921,0,0,0,0,39.638,2.06,2.06,0,0,0,2.957.5,2.068,2.068,0,0,0,.333-2.994,28.865,28.865,0,0,1,0-34.667,2.054,2.054,0,0,0-1.774-3.308Zm39.324,0h0A2.064,2.064,0,0,0,94.331,41a2.1,2.1,0,0,0,.24,2.125,28.865,28.865,0,0,1,0,34.667h0a2.084,2.084,0,0,0-.48,1.571,2.02,2.02,0,0,0,.813,1.423,2.055,2.055,0,0,0,1.589.388,2.092,2.092,0,0,0,1.367-.887,32.921,32.921,0,0,0,0-39.638,1.978,1.978,0,0,0-1.756-.85ZM63.9,47.02h0a2.152,2.152,0,0,0-1.367.776,19.712,19.712,0,0,0,0,25.317,2.092,2.092,0,0,0,1.4.758,2.181,2.181,0,0,0,1.534-.444,2.091,2.091,0,0,0,.758-1.4,2.041,2.041,0,0,0-.462-1.515,15.579,15.579,0,0,1,0-20.106A2.067,2.067,0,0,0,66,48.055,2.038,2.038,0,0,0,63.9,47.02Zm24.873,0h0A2.062,2.062,0,0,0,87.383,50.4a15.579,15.579,0,0,1,0,20.106,2.065,2.065,0,0,0-.462,1.515,2.092,2.092,0,0,0,.758,1.4,2,2,0,0,0,1.534.444,2.092,2.092,0,0,0,1.4-.758A19.682,19.682,0,0,0,90.6,47.8h0a2,2,0,0,0-1.829-.776Zm-12.2,6.209A7.216,7.216,0,0,0,74.5,67.366V69.75H72.988a2.065,2.065,0,0,0-1.811,1.589L59.054,122.933A2.085,2.085,0,0,0,59.2,124.6a2.041,2.041,0,0,0,1.349,1.016A2.072,2.072,0,0,0,62.2,125.3a2.05,2.05,0,0,0,.869-1.441l2.254-9.572,24.356,7.78.425,1.811a2.068,2.068,0,1,0,4.01-.924L81.987,71.357a2.077,2.077,0,0,0-2.033-1.589H78.661V67.384a7.226,7.226,0,0,0-2.088-14.155Zm0,4.139a3.1,3.1,0,1,1-3.1,3.1A3.076,3.076,0,0,1,76.573,57.369Zm-1.756,16.5H78.31l1.645,6.93-6.209-2.458,1.072-4.472Zm-2,8.556L78.994,84.9l-7.761,4.158Zm8.852,5.71,2.236,9.443L72.988,92.812l8.685-4.675Zm-12.03,7.743,12.085,5.248-14.71,5.895Zm15.781,8.26,3.141,13.231-20.142-6.412,17-6.819Z" transform="translate(0 0)" fill="#fff"/>
    </g>
  </g>
</svg>
