<svg xmlns="http://www.w3.org/2000/svg" width="149" height="149" viewBox="0 0 149 149">
  <g id="Grupo_909406" data-name="Grupo 909406" transform="translate(-1074.92 -2162)">
    <circle id="Elipse_7045" data-name="Elipse 7045" cx="74.5" cy="74.5" r="74.5" transform="translate(1074.92 2162)" fill="#0b5999"/>
    <g id="noun-connectivity-1410618" transform="translate(1043.3 2124.951)">
      <path id="Trazado_675496" data-name="Trazado 675496" d="M221.136,92.234H241.1a1.672,1.672,0,0,0,1.636-1.636V70.536A1.672,1.672,0,0,0,241.1,68.9H221.136a1.672,1.672,0,0,0-1.636,1.636V90.5a1.634,1.634,0,0,0,1.636,1.734Zm1.636-20.062h16.692V88.865H222.772Z" transform="translate(-126.259)" fill="#fff"/>
      <path id="Trazado_675497" data-name="Trazado 675497" d="M221.136,251.137H241.1a1.672,1.672,0,0,0,1.636-1.636V229.536A1.672,1.672,0,0,0,241.1,227.9H221.136a1.672,1.672,0,0,0-1.636,1.636V249.5a1.609,1.609,0,0,0,1.636,1.636Zm1.636-19.965h16.692v16.692H222.772Z" transform="translate(-126.259 -128.03)" fill="#fff"/>
      <path id="Trazado_675498" data-name="Trazado 675498" d="M84.3,227.9H64.336a1.672,1.672,0,0,0-1.636,1.636V249.5a1.672,1.672,0,0,0,1.636,1.636H84.3a1.672,1.672,0,0,0,1.636-1.636V229.536A1.672,1.672,0,0,0,84.3,227.9Zm-1.636,19.965H65.972V231.172H82.665Z" transform="translate(0 -128.03)" fill="#fff"/>
      <path id="Trazado_675499" data-name="Trazado 675499" d="M269.246,101.888H252.223l3.389-3.389-2.3-2.3-7.752,7.752,7.752,7.752,2.3-2.3-4.149-4.149H267.61v57.6H242.737v-8.395a1.672,1.672,0,0,0-1.636-1.636H221.136a1.672,1.672,0,0,0-1.636,1.636v19.965a1.672,1.672,0,0,0,1.636,1.636H241.1a1.672,1.672,0,0,0,1.636-1.636v-8.395h26.509a1.672,1.672,0,0,0,1.636-1.636V103.524a1.686,1.686,0,0,0-1.636-1.636Zm-29.782,70.9H222.772V156h16.692Z" transform="translate(-126.259 -21.983)" fill="#fff"/>
    </g>
  </g>
</svg>
