<svg xmlns="http://www.w3.org/2000/svg" width="149" height="149" viewBox="0 0 149 149">
  <g id="Grupo_909405" data-name="Grupo 909405" transform="translate(-727.92 -2162)">
    <circle id="Elipse_7044" data-name="Elipse 7044" cx="74.5" cy="74.5" r="74.5" transform="translate(727.92 2162)" fill="#0b5999"/>
    <g id="noun-technical-2042691" transform="translate(689.449 2165.685)">
      <path id="Trazado_675488" data-name="Trazado 675488" d="M172.886,47.847a1.632,1.632,0,0,0-1.024,1.535V60.073a6.546,6.546,0,0,1,3.317,2.009v-11.6a19.073,19.073,0,0,0,1.668-33.475,1.608,1.608,0,0,0-1.649,0,1.634,1.634,0,0,0-.834,1.422v10.52L166.9,33.024l-7.487-4.075V18.41a1.659,1.659,0,0,0-2.483-1.422,19.033,19.033,0,0,0-7.355,8.3,1.665,1.665,0,0,0,2.976,1.422,15.958,15.958,0,0,1,3.545-4.985v8.208a1.656,1.656,0,0,0,.834,1.46l9.117,4.966a1.692,1.692,0,0,0,1.592,0l9.117-4.966a1.7,1.7,0,0,0,.834-1.46V21.727a15.756,15.756,0,0,1-4.7,26.12Z" transform="translate(-53.485 0)" fill="#fff"/>
      <path id="Trazado_675489" data-name="Trazado 675489" d="M155.96,137.443V126.753a1.67,1.67,0,0,0-1.024-1.535,15.691,15.691,0,0,1-9.478-11.657,1.659,1.659,0,0,0-3.26.607,19.03,19.03,0,0,0,10.444,13.667v11.6a6.812,6.812,0,0,1,3.317-1.99Z" transform="translate(-47.553 -77.37)" fill="#fff"/>
      <path id="Trazado_675490" data-name="Trazado 675490" d="M274.95,433.085a3.3,3.3,0,0,0,3.317-3.317,1.668,1.668,0,0,0-3.336,0h-5.08a3.3,3.3,0,0,0-3.2,2.313,19.872,19.872,0,0,1-1.327,3.222,3.467,3.467,0,0,0-.341,2.047,3.258,3.258,0,0,0,.948,1.839l3.583,3.6-4.758,4.739-3.583-3.583h0a3.379,3.379,0,0,0-1.839-.948,3.2,3.2,0,0,0-2.047.341,19.391,19.391,0,0,1-3.184,1.308,3.267,3.267,0,0,0-1.687,1.194,3.316,3.316,0,0,0-.644,1.971v5.118a1.668,1.668,0,1,0,0,3.336,3.3,3.3,0,0,0,3.317-3.317v-5.08a24.075,24.075,0,0,0,3.753-1.554l3.583,3.583a3.347,3.347,0,0,0,2.35.986,3.281,3.281,0,0,0,2.35-.986l4.739-4.739a3.3,3.3,0,0,0,0-4.7l-3.583-3.583a24.362,24.362,0,0,0,1.573-3.772Z" transform="translate(-135.021 -333.358)" fill="#fff"/>
      <path id="Trazado_675491" data-name="Trazado 675491" d="M110.075,456.086a1.668,1.668,0,1,0,0-3.336v-5.08a3.359,3.359,0,0,0-.644-1.971,3.268,3.268,0,0,0-1.687-1.194,19.866,19.866,0,0,1-3.222-1.327,3.467,3.467,0,0,0-2.047-.341,3.259,3.259,0,0,0-1.839.948l-3.6,3.583L92.3,442.609l3.583-3.583a3.379,3.379,0,0,0,.948-1.839,3.2,3.2,0,0,0-.341-2.047,18.567,18.567,0,0,1-1.346-3.241,3.3,3.3,0,0,0-1.213-1.687,3.359,3.359,0,0,0-1.971-.644H86.836a1.668,1.668,0,0,0-3.336,0,3.3,3.3,0,0,0,3.317,3.317h5.118a24.074,24.074,0,0,0,1.554,3.753l-3.583,3.583a3.3,3.3,0,0,0,0,4.7l4.739,4.739h0a3.348,3.348,0,0,0,2.35.986,3.314,3.314,0,0,0,2.35-.986l3.6-3.564a24.366,24.366,0,0,0,3.772,1.573v5.061a3.358,3.358,0,0,0,.986,2.369,3.136,3.136,0,0,0,2.369.986Z" transform="translate(0 -333.196)" fill="#fff"/>
      <path id="Trazado_675492" data-name="Trazado 675492" d="M83.7,288.056a1.668,1.668,0,1,0,3.336,0h5.061a3.342,3.342,0,0,0,2.009-.644,3.29,3.29,0,0,0,1.213-1.725,19.868,19.868,0,0,1,1.327-3.222,3.467,3.467,0,0,0,.341-2.047,3.258,3.258,0,0,0-.948-1.839l-3.583-3.6,4.758-4.739,3.583,3.583h0a3.379,3.379,0,0,0,1.839.948,3.2,3.2,0,0,0,2.047-.341,19.388,19.388,0,0,1,3.184-1.308,3.267,3.267,0,0,0,1.687-1.194,3.316,3.316,0,0,0,.644-1.971v-5.118a1.668,1.668,0,1,0,0-3.336,3.3,3.3,0,0,0-3.317,3.317v5.08a24.068,24.068,0,0,0-3.753,1.554l-3.583-3.583a3.348,3.348,0,0,0-2.35-.986,3.281,3.281,0,0,0-2.35.986L90.1,272.608a3.3,3.3,0,0,0,0,4.7l3.583,3.583a24.364,24.364,0,0,0-1.573,3.772H87.052a3.358,3.358,0,0,0-2.369.986,3.307,3.307,0,0,0-.986,2.407Z" transform="translate(-0.159 -198.337)" fill="#fff"/>
      <path id="Trazado_675493" data-name="Trazado 675493" d="M274.95,284.944h-5.08a24.072,24.072,0,0,0-1.554-3.753l3.583-3.583a3.3,3.3,0,0,0,0-4.7l-4.758-4.739a3.348,3.348,0,0,0-2.35-.986,3.314,3.314,0,0,0-2.35.986l-3.583,3.583a24.366,24.366,0,0,0-3.772-1.573v-5.061a3.3,3.3,0,0,0-3.317-3.317,1.668,1.668,0,1,0,0,3.336v5.08a3.231,3.231,0,0,0,.626,1.99,3.336,3.336,0,0,0,1.687,1.232,19.867,19.867,0,0,1,3.222,1.327,3.467,3.467,0,0,0,2.047.341,3.258,3.258,0,0,0,1.839-.948l3.6-3.583,4.739,4.758-3.583,3.583h0a3.379,3.379,0,0,0-.948,1.839,3.2,3.2,0,0,0,.341,2.047,19.394,19.394,0,0,1,1.308,3.184,3.3,3.3,0,0,0,1.213,1.687,3.359,3.359,0,0,0,1.971.644h5.118a1.668,1.668,0,0,0,3.336,0,3.329,3.329,0,0,0-.967-2.35,3.431,3.431,0,0,0-2.369-1.024Z" transform="translate(-135.021 -198.58)" fill="#fff"/>
      <path id="Trazado_675494" data-name="Trazado 675494" d="M194.592,345.225a1.651,1.651,0,0,0-.493-1.175,1.7,1.7,0,0,0-1.175-.493h-7.468a5.325,5.325,0,0,0-7.772-3.241,5.268,5.268,0,0,0-2.635,3.867,5.348,5.348,0,0,0,1.441,4.454,1.662,1.662,0,0,0,2.388-2.313,2,2,0,0,1-.4-2.2,2.013,2.013,0,1,1,3.26,2.237,1.662,1.662,0,0,0,2.313,2.388,5.282,5.282,0,0,0,1.289-1.877h5.8a10.926,10.926,0,1,1-15.6-11.449,5.516,5.516,0,1,0,1.933-7.544,5.586,5.586,0,0,0-2.692,4.246,14.216,14.216,0,1,0,19.808,13.1Zm-14.235-14.766a2.169,2.169,0,1,1-1.554.626,2.207,2.207,0,0,1,1.554-.626Z" transform="translate(-66.964 -251.506)" fill="#fff"/>
      <path id="Trazado_675495" data-name="Trazado 675495" d="M144.236,85.768a1.668,1.668,0,1,1-1.668-1.668,1.671,1.671,0,0,1,1.668,1.668" transform="translate(-46.52 -54.563)" fill="#fff"/>
    </g>
  </g>
</svg>
