<svg xmlns="http://www.w3.org/2000/svg" width="149" height="149" viewBox="0 0 149 149">
  <g id="Grupo_909404" data-name="Grupo 909404" transform="translate(-376.163 -2162)">
    <path id="Trazado_675689" data-name="Trazado 675689" d="M74.5,0A74.5,74.5,0,1,1,0,74.5,74.5,74.5,0,0,1,74.5,0Z" transform="translate(376.163 2162)" fill="#0b5999"/>
    <g id="noun-card-5360142" transform="translate(351.378 2135.178)">
      <path id="Trazado_675482" data-name="Trazado 675482" d="M359.522,112.99a1.627,1.627,0,0,1-1.622-1.622V98.122a1.622,1.622,0,0,1,3.244,0v13.246a1.55,1.55,0,0,1-.469,1.135A1.719,1.719,0,0,1,359.522,112.99Z" transform="translate(-240.605 -30.332)" fill="#fff"/>
      <path id="Trazado_675483" data-name="Trazado 675483" d="M316.122,112.99a1.627,1.627,0,0,1-1.622-1.622V98.122a1.622,1.622,0,0,1,3.244,0v13.246a1.55,1.55,0,0,1-.469,1.135A1.755,1.755,0,0,1,316.122,112.99Z" transform="translate(-205.027 -30.332)" fill="#fff"/>
      <path id="Trazado_675484" data-name="Trazado 675484" d="M272.622,112.99A1.627,1.627,0,0,1,271,111.368V98.122a1.622,1.622,0,0,1,3.244,0v13.246a1.55,1.55,0,0,1-.469,1.135A1.719,1.719,0,0,1,272.622,112.99Z" transform="translate(-169.367 -30.332)" fill="#fff"/>
      <path id="Trazado_675485" data-name="Trazado 675485" d="M229.222,112.99a1.627,1.627,0,0,1-1.622-1.622V98.122a1.622,1.622,0,0,1,3.244,0v13.246a1.55,1.55,0,0,1-.469,1.135A1.567,1.567,0,0,1,229.222,112.99Z" transform="translate(-133.788 -30.332)" fill="#fff"/>
      <path id="Trazado_675486" data-name="Trazado 675486" d="M123.116,143.482H73.771a5.907,5.907,0,0,1-5.893-5.893V106.357a1.188,1.188,0,0,0-1.189-1.189,2.292,2.292,0,0,1-2.289-2.289V94.733a2.343,2.343,0,0,1,.4-1.3l2.433-3.55a3.536,3.536,0,0,0,.631-2.036V80.712a2.353,2.353,0,0,1,.667-1.622L87.45,60.167a2.276,2.276,0,0,1,1.622-.667h33.359a6.615,6.615,0,0,1,6.6,6.578v71.493a5.893,5.893,0,0,1-1.73,4.163,5.985,5.985,0,0,1-4.181,1.748ZM67.644,102.05a4.337,4.337,0,0,1,2.487,1.55,4.449,4.449,0,0,1,.973,2.775v31.214a2.751,2.751,0,0,0,.775,1.892,2.642,2.642,0,0,0,1.892.775h49.344a2.751,2.751,0,0,0,1.892-.775,2.642,2.642,0,0,0,.775-1.892V88.8H71.05a6.832,6.832,0,0,1-1.135,2.92l-2.271,3.316Zm-.162-6.794Zm3.64-9.678H125.8v-19.5a3.4,3.4,0,0,0-.973-2.361,3.327,3.327,0,0,0-2.361-.973H89.487L71.1,81.108Z" transform="translate(0 0)" fill="#fff"/>
      <path id="Trazado_675487" data-name="Trazado 675487" d="M188.444,377.858H156.022a1.627,1.627,0,0,1-1.622-1.622V347.022a1.627,1.627,0,0,1,1.622-1.622h32.422a1.55,1.55,0,0,1,1.135.469,1.611,1.611,0,0,1,.469,1.135v29.214a1.55,1.55,0,0,1-.469,1.135,1.516,1.516,0,0,1-1.135.5Zm-30.818-3.244h29.2V348.626h-29.2Z" transform="translate(-73.78 -234.375)" fill="#fff"/>
    </g>
  </g>
</svg>
